<svg width="338" height="93" viewBox="0 0 338 93" fill="none" xmlns="http://www.w3.org/2000/svg">
<path d="M210.647 47.4526C209.786 43.1118 204.541 39.5052 197.967 39.0481C191.615 38.6064 186.084 41.2492 184.408 45.1995C182.679 44.5074 180.557 44.2221 178.315 44.4867C174.465 44.9411 171.334 46.8912 170.11 49.307C168.332 48.2526 165.724 47.9086 163.02 48.5541C159.403 49.4175 156.738 51.7829 156.293 54.2601C155.016 53.5719 153.177 53.4055 151.299 53.9354C148.235 54.7997 146.228 57.1889 146.816 59.2719C147.054 60.1158 147.682 60.78 148.548 61.214C144.436 62.8683 140.251 64.7884 136 67C162.259 56.7439 210.511 53.542 242.678 67C239.252 64.6328 235.034 62.2538 230.116 60.1255C230.996 59.65 231.631 58.9466 231.879 58.0641C232.515 55.795 230.342 53.2016 227.026 52.2716C225.403 51.8167 223.808 51.8441 222.526 52.2566C221.864 49.8271 218.996 47.708 215.313 47.1727C213.636 46.9289 212.027 47.0482 210.647 47.4526Z" fill="url(#paint0_linear)"/>
<path d="M114.491 0.0975693C110.18 0.606404 106.771 2.99062 105.93 5.80422C104.299 5.36488 102.187 5.35628 99.9818 5.88258C95.5736 6.9348 92.4628 9.72661 93.0337 12.1183C93.2054 12.8378 93.6908 13.4391 94.4056 13.8996C89.4959 15.221 84.3764 16.8991 79 18.978C102.927 13.6799 141.5 12.1584 170 18.978C161.719 16.2177 153.734 13.8374 145.652 12.2049C145.763 12.0135 145.85 11.8089 145.911 11.5922C146.474 9.58449 144.551 7.28995 141.617 6.46716C139.537 5.88386 137.507 6.19682 136.3 7.14375C135.472 5.1605 133.025 3.49178 129.949 3.04473C127.794 2.73149 125.764 3.08107 124.274 3.89132C122.91 1.20936 118.935 -0.426895 114.491 0.0975693Z" fill="url(#paint1_linear)"/>
<path d="M78.4911 74.0976C74.1799 74.6064 70.7708 76.9906 69.9302 79.8042C68.2985 79.3649 66.1867 79.3563 63.9818 79.8826C59.5736 80.9348 56.4628 83.7266 57.0337 86.1183C57.2054 86.8378 57.6908 87.4391 58.4056 87.8996C53.4959 89.221 48.3764 90.8991 43 92.978C66.9269 87.6799 105.5 86.1584 134 92.978C125.719 90.2177 117.734 87.8374 109.652 86.2049C109.763 86.0135 109.85 85.8089 109.911 85.5922C110.474 83.5845 108.551 81.2899 105.617 80.4672C103.537 79.8839 101.507 80.1968 100.3 81.1437C99.4721 79.1605 97.0248 77.4918 93.949 77.0447C91.7938 76.7315 89.7636 77.0811 88.2741 77.8913C86.9101 75.2094 82.9347 73.5731 78.4911 74.0976Z" fill="url(#paint2_linear)"/>
<path d="M323.339 80.3202C328.557 80.5333 333.367 81.0146 337.5 81.7791C334.758 81.0485 332.311 80.3437 330.062 79.696C328.904 79.3624 327.798 79.0438 326.731 78.7447C326.918 78.4878 327.059 78.2033 327.145 77.894C327.708 75.8863 325.786 73.5918 322.852 72.769C322.17 72.5779 321.494 72.483 320.851 72.475C319.929 69.6741 316.419 67.3959 312.069 67.0458C307.256 66.6585 303.081 68.7655 302.184 71.8663C300.785 71.693 299.16 71.7837 297.482 72.1843C293.074 73.2365 289.963 76.0283 290.534 78.42C290.716 79.1827 291.25 79.8126 292.037 80.2827C289.867 81.0028 287.532 81.8317 285 82.7792C288.895 82.1522 292.882 81.6348 296.875 81.2319C297.315 81.2106 297.766 81.167 298.226 81.0998C306.389 80.3288 314.537 80.0383 321.933 80.2695C322.416 80.333 322.888 80.3487 323.339 80.3202Z" fill="url(#paint3_linear)"/>
<path d="M38.339 32.3202C43.5572 32.5333 48.3671 33.0146 52.5 33.7791C49.7579 33.0485 47.311 32.3437 45.0624 31.696C43.9038 31.3624 42.7977 31.0438 41.7312 30.7447C41.9179 30.4878 42.0586 30.2033 42.1453 29.894C42.7083 27.8863 40.7859 25.5918 37.8517 24.769C37.1703 24.5779 36.4942 24.483 35.8507 24.475C34.9287 21.6741 31.419 19.3959 27.0687 19.0458C22.2557 18.6585 18.081 20.7655 17.1844 23.8663C15.7846 23.693 14.1601 23.7837 12.4818 24.1843C8.07357 25.2365 4.96279 28.0283 5.53366 30.42C5.71572 31.1827 6.2502 31.8126 7.03679 32.2827C4.86746 33.0028 2.53185 33.8317 0 34.7792C3.89497 34.1522 7.88183 33.6348 11.8745 33.2319C12.3146 33.2106 12.7663 33.167 13.2258 33.0998C21.3893 32.3288 29.5367 32.0383 36.9328 32.2695C37.4156 32.333 37.8878 32.3487 38.339 32.3202Z" fill="url(#paint4_linear)"/>
<defs>
<linearGradient id="paint0_linear" x1="189" y1="43.5" x2="189" y2="61" gradientUnits="userSpaceOnUse">
<stop stop-color="#EBEBEB" stop-opacity="0.8"/>
<stop offset="1" stop-color="#EBEBEB" stop-opacity="0.15"/>
</linearGradient>
<linearGradient id="paint1_linear" x1="124.211" y1="3.05003" x2="124.211" y2="14.9113" gradientUnits="userSpaceOnUse">
<stop stop-color="#EBEBEB" stop-opacity="0.8"/>
<stop offset="1" stop-color="#EBEBEB" stop-opacity="0.15"/>
</linearGradient>
<linearGradient id="paint2_linear" x1="88.2107" y1="77.05" x2="88.2107" y2="88.9113" gradientUnits="userSpaceOnUse">
<stop stop-color="#EBEBEB" stop-opacity="0.8"/>
<stop offset="1" stop-color="#EBEBEB" stop-opacity="0.15"/>
</linearGradient>
<linearGradient id="paint3_linear" x1="311.083" y1="69.5359" x2="311.083" y2="79.3979" gradientUnits="userSpaceOnUse">
<stop stop-color="#EBEBEB" stop-opacity="0.8"/>
<stop offset="1" stop-color="#EBEBEB" stop-opacity="0.15"/>
</linearGradient>
<linearGradient id="paint4_linear" x1="26.0831" y1="21.5359" x2="26.0831" y2="31.3979" gradientUnits="userSpaceOnUse">
<stop stop-color="#EBEBEB" stop-opacity="0.8"/>
<stop offset="1" stop-color="#EBEBEB" stop-opacity="0.15"/>
</linearGradient>
</defs>
</svg>
